<svg width="12" height="13" viewBox="0 0 12 13" xmlns="http://www.w3.org/2000/svg"><g id="Page-1" fill="none" fill-rule="evenodd"><g id="L&amp;M-main-1280x1024" transform="translate(-206 -670)" fill="#FFF"><g id="content-02" transform="translate(135 472)"><g id="content-1-" transform="translate(0 1)"><path d="M80.62 197.746h-7.445c-1.025 0-1.863.86-1.863 1.91v5.23c0 1.05.838 1.91 1.863 1.91h2.297l1.426 2.755 1.426-2.755h2.297c1.025 0 1.863-.86 1.863-1.91v-5.23c0-1.05-.838-1.91-1.862-1.91zm-6.206 5.29c-.416 0-.754-.346-.754-.773 0-.427.338-.774.754-.774s.754.346.754.773c0 .427-.338.773-.754.773zm2.484 0c-.417 0-.755-.346-.755-.773 0-.427.338-.774.755-.774.416 0 .754.346.754.773 0 .427-.338.773-.754.773zm2.485 0c-.417 0-.755-.346-.755-.773 0-.427.338-.774.755-.774.416 0 .753.346.753.773 0 .427-.337.773-.753.773z" id="comments"/></g></g></g></g></svg>