<svg width="1381" height="56" viewBox="0 0 1381 56" xmlns="http://www.w3.org/2000/svg"><g id="Page-1" fill="none" fill-rule="evenodd"><g id="L&amp;M-main-1440x900" transform="translate(-30 -722)" fill="#9B9B9B"><g id="help@marlboro.ru-|-П-+-18-+-КУРЕНИЕ-УБИВАЕТ" transform="translate(0 656)"><g id="white-frame-+-КУРЕНИЕ-УБИВАЕТ" transform="translate(0 54)"><path d="M44.34 12.477H30.858v54.497H44.34V43.777h4.586c1.438 0 4.135.08 5.663 1.668.898.954 1.347 2.7 1.707 6.117.54 5.56.9 9.295 2.337 11.678 2.337 3.813 6.742 4.21 10.248 4.21 1.618 0 2.697 0 4.225-.476v-9.85c-1.17.238-1.978 0-2.607-.954-.72-1.033-.9-2.463-1.348-5.8-.27-2.224-.63-4.925-1.888-7.15-1.618-2.78-4.495-4.05-7.102-4.37v-.237c1.798-.476 3.147-1.35 4.136-2.304 1.707-1.67 2.337-3.814 2.606-5.244.18-.874.36-1.827 1.08-6.355.54-3.256 1.977-3.336 2.966-3.336h.72v-8.897C70.23 12.08 69.24 12 67.443 12c-1.978 0-4.944 0-7.37 1.43-2.07 1.192-2.878 2.94-3.417 4.37-.63 1.747-.99 3.892-1.35 6.83-.448 3.815-.538 5.324-.988 6.754-.27.953-1.17 3.336-5.394 3.336H44.34V12.477zm77.815 0l18.698 39.88c-.36 1.747-1.438 3.177-2.607 3.972-1.618 1.19-3.416 1.27-5.034 1.27-1.888 0-3.506-.16-5.124-.477v9.85c2.157.557 4.225.875 6.742.875 3.955 0 8.63-.556 12.046-3.416 1.798-1.51 4.045-4.37 7.28-12.71l15.103-39.245h-12.496l-8.81 26.136h-.36l-10.337-26.136h-15.102zm100.737 0v54.497h13.484V46.796h6.562c5.753 0 13.035-.636 17.26-5.88 2.427-2.938 3.236-7.387 3.236-11.44 0-6.275-2.068-10.326-4.855-12.79-4.315-3.733-10.16-4.21-15.372-4.21h-20.316zm13.484 8.818h4.315c3.237 0 4.675.556 5.214.874 3.147 1.587 3.506 5.083 3.506 7.148 0 4.767-2.247 6.515-3.416 7.15-1.348.715-3.416.954-5.303.954h-4.314V21.295zm82.758-8.818v54.497h37.575V57.6h-24.092V43.856h18.698v-9.374h-18.698v-12.63h24.09v-9.375h-37.574zm93.365 0v54.497h13.483V44.57h14.833v22.404H454.3V12.477h-13.484v21.926h-14.833V12.477H412.5zm102.714 0v54.497h13.484v-4.37l15.192-25.977c.45-.715.898-1.827 1.977-4.925-.27 1.59-.36 2.94-.36 7.07v28.202h13.485V12.477h-13.484v3.892l-15.192 25.977c-.63 1.112-1.26 2.463-1.978 4.925.27-1.51.36-2.86.36-6.752V12.477h-13.484zm104.692 0v54.497h37.575V57.6h-24.09V43.856h18.697v-9.374H633.39v-12.63h24.09v-9.375h-37.574zm161.167 0l18.698 39.88c-.36 1.747-1.438 3.177-2.606 3.972-1.618 1.19-3.416 1.27-5.034 1.27-1.888 0-3.506-.16-5.124-.477v9.85c2.157.557 4.225.875 6.742.875 3.955 0 8.63-.556 12.046-3.416 1.797-1.51 4.045-4.37 7.28-12.71l15.103-39.245h-12.495l-8.81 26.136h-.36l-10.337-26.136h-15.102zm100.736 0v54.497h20.405c4.675 0 10.518 0 15.192-2.86 2.427-1.51 6.742-5.164 6.742-12.95 0-8.658-4.855-12.63-6.922-13.9-4.765-3.02-11.237-3.18-16.18-3.18h-5.754V21.852h25.08v-9.373H881.81zm13.484 45.6V42.982h5.573c1.978 0 4.764.08 6.652 1.272 1.258.794 2.786 2.62 2.786 6.196 0 3.496-1.44 5.56-3.057 6.435-1.53.874-4.765 1.192-6.383 1.192h-5.573zm86.533-45.6v54.497h13.484v-4.37l15.193-25.977c.45-.715.9-1.827 1.978-4.925-.27 1.59-.36 2.94-.36 7.07v28.202h13.485V12.477h-13.484v3.892l-15.19 25.977c-.63 1.112-1.26 2.463-1.98 4.925.27-1.51.36-2.86.36-6.752V12.477h-13.483zm104.692 0v54.497h23.73c3.507 0 10.07-.08 14.654-4.05 2.966-2.544 4.854-7.15 4.854-10.965 0-3.575-1.438-7.31-3.866-9.772-.9-.874-2.966-2.78-6.562-3.654 3.326-.874 5.124-2.7 5.843-3.416 2.697-2.94 2.967-6.515 2.967-8.58 0-6.355-3.326-9.93-5.933-11.52-1.618-.953-5.034-2.54-12.675-2.54h-23.013zm13.483 21.926v-13.03h5.394c1.798 0 4.315-.078 6.472 1.352 2.067 1.43 2.426 3.177 2.426 5.084 0 1.588-.18 3.653-2.517 5.163-2.338 1.51-5.305 1.43-7.372 1.43h-4.405zm0 23.674V43.3h6.652c1.978 0 4.585.08 6.473 1.27 1.168.716 2.786 2.464 2.786 6.04 0 1.906-.54 4.448-2.067 5.798-1.798 1.59-4.765 1.67-7.192 1.67h-6.652zm98.85-45.6l-18.43 54.497h12.496l2.966-11.28h17.35l3.055 11.28h13.845l-17.62-54.497h-13.663zm11.865 33.842h-12.136l5.933-22.165 6.203 22.164zm73.68-33.843v54.497h37.574V57.6h-24.09V43.856h18.697v-9.374h-18.7v-12.63h24.092v-9.375h-37.575zm87.162 0v10.168h12.405v44.33h13.484v-44.33h12.674V12.477h-38.564z" id="die"/></g></g></g></g></svg>