<svg width="12" height="14" viewBox="0 0 12 14" xmlns="http://www.w3.org/2000/svg"><g id="Page-1" fill="none" fill-rule="evenodd"><g id="L&amp;M-main-1280x1024" transform="translate(-146 -667)" fill="#FFF"><g id="content-02" transform="translate(135 472)"><g id="content-1-" transform="translate(0 1)"><path d="M22.056 202.98l-.802.938-.295 1.06-.71.596s-.22.7-.442.734c-1.523.243-2.914-.35-4.607-.354-.708 0-1.277.04-1.742.068v1.117H11v-6.783h2.458v.8c1.675-.322 1.812-1.298 2.157-1.71.696-.834 1.096-1.27 1.38-2.387.155-.612.206-2.293.34-2.565.095-.19.498-.153.698-.098.47.127.683.473.877 1.528.18.976-.878 3.34-.277 3.523 1.22.376 3.166.396 3.515.61.246.15.508 1.118.508 1.118l-.6 1.804" id="like"/></g></g></g></g></svg>