<?xml version="1.0" encoding="UTF-8" standalone="no"?>
<svg width="12px" height="13px" viewBox="0 0 12 13" version="1.1" xmlns="http://www.w3.org/2000/svg" xmlns:xlink="http://www.w3.org/1999/xlink" xmlns:sketch="http://www.bohemiancoding.com/sketch/ns">
    <!-- Generator: Sketch 3.3.3 (12072) - http://www.bohemiancoding.com/sketch -->
    <title>comments</title>
    <desc>Created with Sketch.</desc>
    <defs></defs>
    <g id="Page-1" stroke="none" stroke-width="1" fill="none" fill-rule="evenodd" sketch:type="MSPage">
        <g id="L&amp;M-main-1280x1024" sketch:type="MSArtboardGroup" transform="translate(-206.000000, -670.000000)" fill="#FFFFFF">
            <g id="content-02" sketch:type="MSLayerGroup" transform="translate(135.000000, 472.000000)">
                <g id="content-1-" transform="translate(0.000000, 1.000000)" sketch:type="MSShapeGroup">
                    <g id="comments" transform="translate(71.000000, 196.000000)">
                        <path d="M9.621,1.746 L2.175,1.746 C1.15,1.746 0.312,2.606 0.312,3.655 L0.312,8.886 C0.312,9.935 1.15,10.795 2.175,10.795 L4.472,10.795 L5.898,13.551 L7.324,10.795 L9.621,10.795 C10.645,10.795 11.483,9.935 11.483,8.886 L11.483,3.655 C11.483,2.606 10.645,1.746 9.621,1.746 L9.621,1.746 Z M3.414,7.036 C2.998,7.036 2.66,6.69 2.66,6.263 C2.66,5.836 2.998,5.489 3.414,5.489 C3.83,5.489 4.168,5.836 4.168,6.263 C4.168,6.69 3.83,7.036 3.414,7.036 L3.414,7.036 Z M5.898,7.036 C5.481,7.036 5.143,6.69 5.143,6.263 C5.143,5.836 5.481,5.489 5.898,5.489 C6.314,5.489 6.652,5.836 6.652,6.263 C6.652,6.69 6.314,7.036 5.898,7.036 L5.898,7.036 Z M8.383,7.036 C7.966,7.036 7.628,6.69 7.628,6.263 C7.628,5.836 7.966,5.489 8.383,5.489 C8.799,5.489 9.136,5.836 9.136,6.263 C9.136,6.69 8.799,7.036 8.383,7.036 L8.383,7.036 Z"></path>
                    </g>
                </g>
            </g>
        </g>
    </g>
</svg>