<?xml version="1.0" encoding="UTF-8" standalone="no"?>
<svg width="1381px" height="56px" viewBox="0 0 1381 56" version="1.1" xmlns="http://www.w3.org/2000/svg" xmlns:xlink="http://www.w3.org/1999/xlink" xmlns:sketch="http://www.bohemiancoding.com/sketch/ns">
    <!-- Generator: Sketch 3.3.3 (12072) - http://www.bohemiancoding.com/sketch -->
    <title>die</title>
    <desc>Created with Sketch.</desc>
    <defs></defs>
    <g id="Page-1" stroke="none" stroke-width="1" fill="none" fill-rule="evenodd" sketch:type="MSPage">
        <g id="L&amp;M-main-1440x900" sketch:type="MSArtboardGroup" transform="translate(-30.000000, -722.000000)" fill="#9B9B9B">
            <g id="help@marlboro.ru-|-П-+-18-+-КУРЕНИЕ-УБИВАЕТ" sketch:type="MSLayerGroup" transform="translate(0.000000, 656.000000)">
                <g id="white-frame-+-КУРЕНИЕ-УБИВАЕТ" transform="translate(0.000000, 54.000000)" sketch:type="MSShapeGroup">
                    <path d="M44.3411638,12.4766537 L30.8571429,12.4766537 L30.8571429,66.9740562 L44.3411638,66.9740562 L44.3411638,43.7769111 L48.925731,43.7769111 C50.3640265,43.7769111 53.0608307,43.8563534 54.5890198,45.4451989 C55.4879545,46.3985063 55.9374219,48.1462364 56.2969957,51.5622543 C56.8363566,57.1232138 57.1959305,60.8570008 58.634226,63.2402692 C60.9714563,67.0534985 65.3762365,67.4507099 68.882082,67.4507099 C70.5001645,67.4507099 71.5788862,67.4507099 73.1070752,66.9740562 L73.1070752,57.1232138 C71.9384601,57.3615406 71.1294188,57.1232138 70.5001645,56.1699064 C69.7810167,55.1371568 69.6012298,53.7071958 69.1517624,50.3706202 C68.882082,48.1462364 68.5225081,45.4451989 67.2639995,43.2208152 C65.6459169,40.4403354 62.7693258,39.169259 60.1624151,38.8514899 L60.1624151,38.6131631 C61.9602846,38.1365094 63.3086866,37.2626443 64.2975149,36.309337 C66.0054908,34.6410492 66.6347452,32.4961077 66.9044256,31.0661467 C67.0842125,30.1922816 67.2639995,29.2389743 67.9831472,24.7107644 C68.5225081,21.4536311 69.9608037,21.3741888 70.9496319,21.3741888 L71.6687796,21.3741888 L71.6687796,12.4766537 C70.2304841,12.0794423 69.2416559,12 67.4437864,12 C65.46613,12 62.4996454,12 60.0725216,13.429961 C58.0049717,14.6215952 57.1959305,16.3693253 56.6565696,17.7992863 C56.0273153,19.5470164 55.6677414,21.6919579 55.3081675,24.6313222 C54.8587002,28.4445515 54.7688067,29.9539548 54.3193393,31.3839158 C54.0496589,32.3372231 53.1507242,34.7204914 48.925731,34.7204914 L44.3411638,34.7204914 L44.3411638,12.4766537 Z M122.155028,12.4766537 L140.85287,52.3566771 C140.493297,54.1044072 139.414575,55.5343682 138.24596,56.328791 C136.627877,57.5204252 134.830008,57.5998674 133.211925,57.5998674 C131.324162,57.5998674 129.70608,57.4409829 128.087997,57.1232138 L128.087997,66.9740562 C130.245441,67.5301522 132.312991,67.8479213 134.830008,67.8479213 C138.785321,67.8479213 143.459781,67.2918253 146.875733,64.4319033 C148.673603,62.9225001 150.920939,60.0625781 154.157104,51.7211389 L169.259208,12.4766537 L156.764015,12.4766537 L147.954455,38.6131631 L147.594881,38.6131631 L137.257132,12.4766537 L122.155028,12.4766537 Z M222.891728,12.4766537 L222.891728,66.9740562 L236.375749,66.9740562 L236.375749,46.7957177 L242.937972,46.7957177 C248.691155,46.7957177 255.972526,46.1601794 260.197519,40.9169891 C262.624643,37.9776248 263.433684,33.5288573 263.433684,29.4773011 C263.433684,23.2013612 261.366134,19.149805 258.579437,16.6870944 C254.26455,12.9533073 248.421474,12.4766537 243.207653,12.4766537 L222.891728,12.4766537 Z M236.375749,21.2947465 L240.690636,21.2947465 C243.926801,21.2947465 245.365096,21.8508424 245.904457,22.1686116 C249.050729,23.7574571 249.410302,27.2529173 249.410302,29.3184166 C249.410302,34.0849532 247.162966,35.8326833 245.994351,36.4682216 C244.645948,37.1832021 242.578399,37.4215289 240.690636,37.4215289 L236.375749,37.4215289 L236.375749,21.2947465 Z M319.133754,12.4766537 L319.133754,66.9740562 L356.709226,66.9740562 L356.709226,57.5998674 L332.617775,57.5998674 L332.617775,43.8563534 L351.315618,43.8563534 L351.315618,34.4821646 L332.617775,34.4821646 L332.617775,21.8508424 L356.709226,21.8508424 L356.709226,12.4766537 L319.133754,12.4766537 Z M412.499189,12.4766537 L412.499189,66.9740562 L425.98321,66.9740562 L425.98321,44.5713339 L440.815633,44.5713339 L440.815633,66.9740562 L454.299654,66.9740562 L454.299654,12.4766537 L440.815633,12.4766537 L440.815633,34.4027223 L425.98321,34.4027223 L425.98321,12.4766537 L412.499189,12.4766537 Z M515.213546,12.4766537 L515.213546,66.9740562 L528.697566,66.9740562 L528.697566,62.604731 L543.889563,36.6271061 C544.339031,35.9121256 544.788498,34.7999337 545.86722,31.7016849 C545.597539,33.2905304 545.507646,34.6410492 545.507646,38.7720476 L545.507646,66.9740562 L558.991667,66.9740562 L558.991667,12.4766537 L545.507646,12.4766537 L545.507646,16.3693253 L530.315649,42.3469501 C529.686395,43.459142 529.05714,44.8096607 528.337993,47.2723713 C528.607673,45.7629681 528.697566,44.4124493 528.697566,40.5197777 L528.697566,12.4766537 L515.213546,12.4766537 Z M619.905558,12.4766537 L619.905558,66.9740562 L657.48103,66.9740562 L657.48103,57.5998674 L633.389579,57.5998674 L633.389579,43.8563534 L652.087422,43.8563534 L652.087422,34.4821646 L633.389579,34.4821646 L633.389579,21.8508424 L657.48103,21.8508424 L657.48103,12.4766537 L619.905558,12.4766537 Z M781.072799,12.4766537 L799.770641,52.3566771 C799.411067,54.1044072 798.332346,55.5343682 797.163731,56.328791 C795.545648,57.5204252 793.747779,57.5998674 792.129696,57.5998674 C790.241933,57.5998674 788.623851,57.4409829 787.005768,57.1232138 L787.005768,66.9740562 C789.163211,67.5301522 791.230761,67.8479213 793.747779,67.8479213 C797.703091,67.8479213 802.377552,67.2918253 805.793504,64.4319033 C807.591373,62.9225001 809.83871,60.0625781 813.074875,51.7211389 L828.176979,12.4766537 L815.681786,12.4766537 L806.872226,38.6131631 L806.512652,38.6131631 L796.174902,12.4766537 L781.072799,12.4766537 Z M881.809499,12.4766537 L881.809499,66.9740562 L902.215317,66.9740562 C906.889778,66.9740562 912.732853,66.9740562 917.407314,64.1141342 C919.834438,62.604731 924.149325,58.9503862 924.149325,51.1650429 C924.149325,42.5058347 919.295077,38.5337208 917.227527,37.2626443 C912.463173,34.2438378 905.990843,34.0849532 901.046702,34.0849532 L895.29352,34.0849532 L895.29352,21.8508424 L920.373799,21.8508424 L920.373799,12.4766537 L881.809499,12.4766537 Z M895.29352,58.0765211 L895.29352,42.9824883 L900.866915,42.9824883 C902.844571,42.9824883 905.631269,43.0619306 907.519032,44.2535648 C908.777541,45.0479876 910.30573,46.8751599 910.30573,50.4500624 C910.30573,53.9455227 908.867434,56.0110219 907.249352,56.8848869 C905.721163,57.758752 902.484998,58.0765211 900.866915,58.0765211 L895.29352,58.0765211 Z M981.827051,12.4766537 L981.827051,66.9740562 L995.311072,66.9740562 L995.311072,62.604731 L1010.50307,36.6271061 C1010.95254,35.9121256 1011.402,34.7999337 1012.48073,31.7016849 C1012.21104,33.2905304 1012.12115,34.6410492 1012.12115,38.7720476 L1012.12115,66.9740562 L1025.60517,66.9740562 L1025.60517,12.4766537 L1012.12115,12.4766537 L1012.12115,16.3693253 L996.929154,42.3469501 C996.2999,43.459142 995.670646,44.8096607 994.951498,47.2723713 C995.221178,45.7629681 995.311072,44.4124493 995.311072,40.5197777 L995.311072,12.4766537 L981.827051,12.4766537 Z M1086.51906,12.4766537 L1086.51906,66.9740562 L1110.25094,66.9740562 C1113.75679,66.9740562 1120.31901,66.894614 1124.90358,62.9225001 C1127.87006,60.3803472 1129.75782,55.7726951 1129.75782,51.9594657 C1129.75782,48.3845632 1128.31953,44.6507762 1125.8924,42.1880656 C1124.99347,41.3142005 1122.92592,39.4075858 1119.33018,38.5337208 C1122.65624,37.6598557 1124.45411,35.8326833 1125.17326,35.1177028 C1127.87006,32.1783386 1128.13974,28.6034361 1128.13974,26.5379368 C1128.13974,20.1825546 1124.81368,16.6076521 1122.20677,15.0188066 C1120.58869,14.0654992 1117.17274,12.4766537 1109.53179,12.4766537 L1086.51906,12.4766537 Z M1100.00308,34.4027223 L1100.00308,21.3741888 L1105.39669,21.3741888 C1107.19456,21.3741888 1109.71158,21.2947465 1111.86902,22.7247075 C1113.93657,24.1546685 1114.29615,25.9023986 1114.29615,27.8090133 C1114.29615,29.3978588 1114.11636,31.4633581 1111.77913,32.9727613 C1109.4419,34.4821646 1106.47541,34.4027223 1104.40786,34.4027223 L1100.00308,34.4027223 Z M1100.00308,58.0765211 L1100.00308,43.3002574 L1106.6552,43.3002574 C1108.63286,43.3002574 1111.23977,43.3796997 1113.12753,44.5713339 C1114.29615,45.2863144 1115.91423,47.0340445 1115.91423,50.608947 C1115.91423,52.5155617 1115.37487,55.0577146 1113.84668,56.4082333 C1112.04881,57.9970788 1109.08233,58.0765211 1106.6552,58.0765211 L1100.00308,58.0765211 Z M1198.85202,12.4766537 L1180.42386,66.9740562 L1192.91905,66.9740562 L1195.88554,55.6932528 L1213.23498,55.6932528 L1216.29136,66.9740562 L1230.13495,66.9740562 L1212.51583,12.4766537 L1198.85202,12.4766537 Z M1210.71796,46.319064 L1198.58234,46.319064 L1204.51531,24.1546685 L1210.71796,46.319064 Z M1284.39672,12.4766537 L1284.39672,66.9740562 L1321.9722,66.9740562 L1321.9722,57.5998674 L1297.88075,57.5998674 L1297.88075,43.8563534 L1316.57859,43.8563534 L1316.57859,34.4821646 L1297.88075,34.4821646 L1297.88075,21.8508424 L1321.9722,21.8508424 L1321.9722,12.4766537 L1284.39672,12.4766537 Z M1371.55951,12.4766537 L1371.55951,22.6452652 L1383.96481,22.6452652 L1383.96481,66.9740562 L1397.44883,66.9740562 L1397.44883,22.6452652 L1410.12381,22.6452652 L1410.12381,12.4766537 L1371.55951,12.4766537 Z" id="die"></path>
                </g>
            </g>
        </g>
    </g>
</svg>