<?xml version="1.0" encoding="UTF-8" standalone="no"?>
<svg width="12px" height="14px" viewBox="0 0 12 14" version="1.1" xmlns="http://www.w3.org/2000/svg" xmlns:xlink="http://www.w3.org/1999/xlink" xmlns:sketch="http://www.bohemiancoding.com/sketch/ns">
    <!-- Generator: Sketch 3.3.3 (12072) - http://www.bohemiancoding.com/sketch -->
    <title>like</title>
    <desc>Created with Sketch.</desc>
    <defs></defs>
    <g id="Page-1" stroke="none" stroke-width="1" fill="none" fill-rule="evenodd" sketch:type="MSPage">
        <g id="L&amp;M-main-1280x1024" sketch:type="MSArtboardGroup" transform="translate(-146.000000, -667.000000)" fill="#FFFFFF">
            <g id="content-02" sketch:type="MSLayerGroup" transform="translate(135.000000, 472.000000)">
                <g id="content-1-" transform="translate(0.000000, 1.000000)" sketch:type="MSShapeGroup">
                    <g id="like" transform="translate(11.000000, 194.000000)">
                        <path d="M11.056,8.98017688 L10.254,9.91817688 L9.959,10.9791769 L9.25,11.5741769 C9.25,11.5741769 9.029,12.2731769 8.808,12.3081769 C7.285,12.5511769 5.894,11.9571769 4.201,11.9541769 C3.492,11.9531769 2.923,11.9951769 2.458,12.0221769 L2.458,13.1391769 L0,13.1391769 L0,6.35717688 L2.458,6.35717688 L2.458,7.15617688 C4.133,6.83517688 4.27,5.85917688 4.615,5.44717688 C5.311,4.61317688 5.711,4.17717688 5.995,3.06017688 C6.15,2.44817688 6.201,0.767176879 6.336,0.495176879 C6.43,0.305176879 6.833,0.342176879 7.033,0.397176879 C7.502,0.524176879 7.716,0.870176879 7.91,1.92517688 C8.089,2.90117688 7.032,5.26417688 7.633,5.44817688 C8.852,5.82417688 10.799,5.84417688 11.148,6.05817688 C11.394,6.20717688 11.656,7.17617688 11.656,7.17617688 L11.056,8.98017688"></path>
                    </g>
                </g>
            </g>
        </g>
    </g>
</svg>